<svg width="24" height="24" viewBox="0 0 24 24" fill="none" xmlns="http://www.w3.org/2000/svg">
<path d="M11.1464 0.256641C11.662 -0.0855469 12.337 -0.0855469 12.8526 0.256641L13.687 0.805078C13.9682 0.987891 14.2964 1.07695 14.6292 1.0582L15.6276 0.997266C16.2464 0.959766 16.8276 1.29727 17.1042 1.85039L17.5542 2.7457C17.7042 3.0457 17.9479 3.28477 18.2432 3.43477L19.1479 3.88945C19.7011 4.16602 20.0386 4.74727 20.0011 5.36602L19.9401 6.36445C19.9214 6.69727 20.0104 7.03008 20.1932 7.30664L20.7464 8.14102C21.0886 8.65664 21.0886 9.33164 20.7464 9.84727L20.1932 10.6863C20.0104 10.9676 19.9214 11.2957 19.9401 11.6285L20.0011 12.627C20.0386 13.2457 19.7011 13.827 19.1479 14.1035L18.2526 14.5535C17.9526 14.7035 17.7136 14.9473 17.5636 15.2426L17.1089 16.1473C16.8323 16.7004 16.2511 17.0379 15.6323 17.0004L14.6339 16.9395C14.3011 16.9207 13.9682 17.0098 13.6917 17.1926L12.8573 17.7457C12.3417 18.0879 11.6667 18.0879 11.1511 17.7457L10.312 17.1926C10.0307 17.0098 9.70262 16.9207 9.36981 16.9395L8.37137 17.0004C7.75262 17.0379 7.17137 16.7004 6.89481 16.1473L6.44481 15.252C6.29481 14.952 6.05106 14.7129 5.75574 14.5629L4.85106 14.1082C4.29793 13.8316 3.96043 13.2504 3.99793 12.6316L4.05887 11.6332C4.07762 11.3004 3.98856 10.9676 3.80574 10.691L3.25731 9.85195C2.91512 9.33633 2.91512 8.66133 3.25731 8.1457L3.80574 7.31133C3.98856 7.03008 4.07762 6.70195 4.05887 6.36914L3.99793 5.3707C3.96043 4.75195 4.29793 4.1707 4.85106 3.89414L5.74637 3.44414C6.04637 3.28945 6.29012 3.0457 6.44012 2.7457L6.89012 1.85039C7.16668 1.29727 7.74793 0.959766 8.36668 0.997266L9.36512 1.0582C9.69793 1.07695 10.0307 0.987891 10.3073 0.805078L11.1464 0.256641ZM15.7495 8.99883C15.7495 8.00427 15.3544 7.05044 14.6511 6.34718C13.9479 5.64392 12.9941 5.24883 11.9995 5.24883C11.0049 5.24883 10.0511 5.64392 9.34784 6.34718C8.64458 7.05044 8.2495 8.00427 8.2495 8.99883C8.2495 9.99339 8.64458 10.9472 9.34784 11.6505C10.0511 12.3537 11.0049 12.7488 11.9995 12.7488C12.9941 12.7488 13.9479 12.3537 14.6511 11.6505C15.3544 10.9472 15.7495 9.99339 15.7495 8.99883ZM3.06043 20.7082L5.08074 15.9035C5.09012 15.9082 5.09481 15.9129 5.09949 15.9223L5.54949 16.8176C6.09793 17.9051 7.237 18.566 8.45575 18.4957L9.45418 18.4348C9.46356 18.4348 9.47762 18.4348 9.48699 18.4441L10.3214 18.9973C10.5604 19.152 10.8136 19.2738 11.0761 19.3582L9.31356 23.5441C9.20575 23.802 8.96668 23.9754 8.69012 23.9988C8.41356 24.0223 8.14637 23.8957 7.99637 23.6613L6.487 21.3504L3.85731 21.7395C3.59012 21.777 3.32293 21.6691 3.15418 21.4582C2.98543 21.2473 2.95262 20.9566 3.05574 20.7082H3.06043ZM14.6854 23.5395L12.9229 19.3582C13.1854 19.2738 13.4386 19.1566 13.6776 18.9973L14.512 18.4441C14.5214 18.4395 14.5307 18.4348 14.5448 18.4348L15.5432 18.4957C16.762 18.566 17.9011 17.9051 18.4495 16.8176L18.8995 15.9223C18.9042 15.9129 18.9089 15.9082 18.9182 15.9035L20.9432 20.7082C21.0464 20.9566 21.0089 21.2426 20.8448 21.4582C20.6807 21.6738 20.4089 21.7816 20.1417 21.7395L17.512 21.3504L16.0026 23.6566C15.8526 23.891 15.5854 24.0176 15.3089 23.9941C15.0323 23.9707 14.7932 23.7926 14.6854 23.5395Z" fill="#00A942"/>
</svg>
